<svg width="160" height="60" xmlns="http://www.w3.org/2000/svg"><svg xmlns="http://www.w3.org/2000/svg" xmlns:xlink="http://www.w3.org/1999/xlink" width="80" height="50" data-background-color="#ffffff" transform="translate(-.606 .252)" viewBox="0 0 396 247"><svg width="395.52" height="247.2" transform="translate(.24 -.1)" viewBox="0 0 395.52 247.2"><svg/><svg width="395.52" height="247.2" viewBox="0 0 395.52 247.2"><mask id="a">
	<path fill="#fff" d="M0 0h395.52v247.2H0z"/><svg width="395.52" height="97.505" transform="translate(0 74.848)" viewBox="0 0 395.52 97.505"><svg width="395.52" height="97.505" viewBox="0 0 395.52 97.505"><svg width="395.52" height="97.505" viewBox="0 0 395.52 97.505"><svg width="395.52" height="97.505" viewBox="0 0 395.52 97.505"><svg width="395.52" height="97.505" viewBox="0 0 395.52 97.505"><svg width="395.52" height="97.505" viewBox="0 0 395.52 97.505"><svg width="395.52" height="97.505" data-palette-color="#4E31AA" viewBox="1 -36.25 159.18 40">
	<path stroke="#000" stroke-linejoin="round" stroke-width="5" d="M20.9-6.25q0 7-8.45 7T4-6.25v-4.25h3.5v4.45q0 1.8 1.25 2.8 1.25 1 3.7 1t3.7-1q1.25-1 1.25-2.73 0-1.72-.37-2.74-.38-1.03-1.53-2.18l-8.8-8.6q-1.55-1.55-2.12-3.03Q4-24 4-26.25q0-3.35 2.08-5.18 2.07-1.82 6.27-1.82 8.05 0 8.05 7V-22h-3.5v-4.45q0-1.8-1.17-2.8-1.18-1-3.53-1-2.35 0-3.52 1-1.18 1-1.18 2.75t.35 2.75q.35 1 1.55 2.1l8.95 8.6q1.45 1.6 2 3.07.55 1.48.55 3.73Zm12-3.75V0h-3.5v-32.5h7.55q3.9 0 5.92 1.85 2.03 1.85 2.03 5.15v8.5q0 3.35-2 5.17-2 1.83-5.95 1.83H32.9Zm8.5-7v-8.5q0-1.9-1.15-2.95-1.15-1.05-3.3-1.05H32.9V-13h4.05q4.45 0 4.45-4ZM65.55 0H52.9v-32.5h3.5V-3h9.15v3Zm9.49-32.5V0h-3.5v-32.5h3.5Zm9.25 26.75V-32.5h11v3h-7.5v23.95q0 1.4.73 2.35.72.95 2.05.95 1.32 0 2.02-.93.7-.92.7-2.37v-5.95h3.5v5.75q0 3.15-1.67 4.82Q93.44.75 90.59.75q-2.85 0-4.57-1.68-1.73-1.67-1.73-4.82Zm35.4-.5q0 7-8.45 7t-8.45-7v-4.25h3.5v4.45q0 1.8 1.25 2.8 1.25 1 3.7 1t3.7-1q1.25-1 1.25-2.73 0-1.72-.38-2.74-.37-1.03-1.52-2.18l-8.8-8.6q-1.55-1.55-2.13-3.03-.57-1.47-.57-3.72 0-3.35 2.07-5.18 2.08-1.82 6.28-1.82 8.05 0 8.05 7V-22h-3.5v-4.45q0-1.8-1.18-2.8-1.17-1-3.52-1t-3.53 1q-1.17 1-1.17 2.75t.35 2.75q.35 1 1.55 2.1l8.95 8.6q1.45 1.6 2 3.07.55 1.48.55 3.73Zm12.5-26.25V0h-3.5v-32.5h3.5ZM145.18-10V0h-3.5v-32.5h7.55q3.9 0 5.93 1.85 2.02 1.85 2.02 5.15v8.5q0 3.35-2 5.17-2 1.83-5.95 1.83h-4.05Zm8.5-7v-8.5q0-1.9-1.15-2.95-1.15-1.05-3.3-1.05h-4.05V-13h4.05q4.45 0 4.45-4Z" class="wordmark-text-0"/>
</svg>
</svg>
</svg>
</svg>
</svg>
</svg>
</svg></mask><g mask="url(#a)">
	<path xmlns="http://www.w3.org/2000/svg" fill="#4E31AA" d="M259.196 196.306c0 33.929-20.479 50.894-61.436 50.894-40.958 0-61.436-16.965-61.436-50.894v-30.9h25.447v32.354c0 8.725 3.029 15.511 9.088 20.358 6.059 4.847 15.026 7.271 26.901 7.27 11.875 0 20.842-2.424 26.901-7.27 6.059-4.847 9.088-11.463 9.088-19.849 0-8.337-.897-14.977-2.69-19.921-1.842-4.992-5.55-10.276-11.124-15.85l-63.981-62.527c-7.513-7.513-12.651-14.856-15.414-22.03-2.811-7.125-4.217-16.141-4.216-27.047 0-16.238 5.041-28.792 15.122-37.662C161.479 4.41 176.675 0 197.033 0c39.019 0 58.528 16.965 58.528 50.894v30.9h-25.447V49.44c0-8.725-2.836-15.511-8.506-20.358-5.72-4.847-14.275-7.271-25.666-7.27-11.391 0-19.921 2.424-25.592 7.27-5.72 4.847-8.579 11.512-8.579 19.994s.848 15.147 2.544 19.995c1.696 4.847 5.453 9.936 11.27 15.268l65.071 62.527c7.028 7.755 11.875 15.196 14.542 22.321 2.666 7.174 3.999 16.213 3.998 27.119z" data-fill-palette-color="tertiary" font-family="none" font-size="none" font-weight="none" style="mix-blend-mode:normal" text-anchor="none"/></g><svg width="395.52" height="97.505" transform="translate(0 74.848)" viewBox="0 0 395.52 97.505"><svg width="395.52" height="97.505" viewBox="0 0 395.52 97.505"><svg width="395.52" height="97.505" viewBox="0 0 395.52 97.505"><svg width="395.52" height="97.505" viewBox="0 0 395.52 97.505"><svg width="395.52" height="97.505" viewBox="0 0 395.52 97.505"><svg width="395.52" height="97.505" viewBox="0 0 395.52 97.505"><svg width="395.52" height="97.505" data-palette-color="#4E31AA" viewBox="1 -36.25 159.18 40">
	<path fill="#4E31AA" d="M20.9-6.25q0 7-8.45 7T4-6.25v-4.25h3.5v4.45q0 1.8 1.25 2.8 1.25 1 3.7 1t3.7-1q1.25-1 1.25-2.73 0-1.72-.37-2.74-.38-1.03-1.53-2.18l-8.8-8.6q-1.55-1.55-2.12-3.03Q4-24 4-26.25q0-3.35 2.08-5.18 2.07-1.82 6.27-1.82 8.05 0 8.05 7V-22h-3.5v-4.45q0-1.8-1.17-2.8-1.18-1-3.53-1-2.35 0-3.52 1-1.18 1-1.18 2.75t.35 2.75q.35 1 1.55 2.1l8.95 8.6q1.45 1.6 2 3.07.55 1.48.55 3.73Zm12-3.75V0h-3.5v-32.5h7.55q3.9 0 5.92 1.85 2.03 1.85 2.03 5.15v8.5q0 3.35-2 5.17-2 1.83-5.95 1.83H32.9Zm8.5-7v-8.5q0-1.9-1.15-2.95-1.15-1.05-3.3-1.05H32.9V-13h4.05q4.45 0 4.45-4ZM65.55 0H52.9v-32.5h3.5V-3h9.15v3Zm9.49-32.5V0h-3.5v-32.5h3.5Zm9.25 26.75V-32.5h11v3h-7.5v23.95q0 1.4.73 2.35.72.95 2.05.95 1.32 0 2.02-.93.7-.92.7-2.37v-5.95h3.5v5.75q0 3.15-1.67 4.82Q93.44.75 90.59.75q-2.85 0-4.57-1.68-1.73-1.67-1.73-4.82Zm35.4-.5q0 7-8.45 7t-8.45-7v-4.25h3.5v4.45q0 1.8 1.25 2.8 1.25 1 3.7 1t3.7-1q1.25-1 1.25-2.73 0-1.72-.38-2.74-.37-1.03-1.52-2.18l-8.8-8.6q-1.55-1.55-2.13-3.03-.57-1.47-.57-3.72 0-3.35 2.07-5.18 2.08-1.82 6.28-1.82 8.05 0 8.05 7V-22h-3.5v-4.45q0-1.8-1.18-2.8-1.17-1-3.52-1t-3.53 1q-1.17 1-1.17 2.75t.35 2.75q.35 1 1.55 2.1l8.95 8.6q1.45 1.6 2 3.07.55 1.48.55 3.73Zm12.5-26.25V0h-3.5v-32.5h3.5ZM145.18-10V0h-3.5v-32.5h7.55q3.9 0 5.93 1.85 2.02 1.85 2.02 5.15v8.5q0 3.35-2 5.17-2 1.83-5.95 1.83h-4.05Zm8.5-7v-8.5q0-1.9-1.15-2.95-1.15-1.05-3.3-1.05h-4.05V-13h4.05q4.45 0 4.45-4Z" class="wordmark-text-0" data-fill-palette-color="primary"/>
</svg>
</svg>
</svg>
</svg>
</svg>
</svg>
</svg>
</svg>
</svg>
</svg>
</svg>